<mxfile host="app.diagrams.net" modified="2023-10-22T19:06:50.426Z" agent="Mozilla/5.0 (Macintosh; Intel Mac OS X 10.15; rv:109.0) Gecko/20100101 Firefox/118.0" etag="G6_mN8QI3lGXKdp8t7He" version="22.0.6" type="github">
  <diagram name="Page-1" id="TRq5XuP69NimFNn6USWg">
    <mxGraphModel dx="2385" dy="2000" grid="1" gridSize="10" guides="1" tooltips="1" connect="1" arrows="1" fold="1" page="1" pageScale="1" pageWidth="850" pageHeight="1100" math="0" shadow="0">
      <root>
        <mxCell id="0" />
        <mxCell id="1" parent="0" />
        <mxCell id="9_oaqR34OvK6Jf1aJRLZ-4" value="" style="verticalLabelPosition=bottom;html=1;verticalAlign=top;strokeWidth=1;align=center;outlineConnect=0;dashed=0;outlineConnect=0;shape=mxgraph.aws3d.ami2;aspect=fixed;fillColor=#FF9900;strokeColor=#ffffff;fontFamily=Helvetica;fontSize=12;" vertex="1" parent="1">
          <mxGeometry x="869.9999999999998" y="-230" width="103.6" height="70" as="geometry" />
        </mxCell>
        <mxCell id="9_oaqR34OvK6Jf1aJRLZ-6" value="&lt;a href=&quot;https://www.strato.de/apps/CustomerService?sessionID=a4372eca3d5ed59611a0db00efdf98&amp;amp;cID=2&amp;amp;node=kds_Vertragsbetreuung_2&quot; class=&quot;customer-link&quot; style=&quot;font-size: 12px;&quot;&gt;Linux V40-32  &lt;/a&gt;" style="text;html=1;strokeColor=none;fillColor=none;align=center;verticalAlign=middle;whiteSpace=wrap;rounded=0;fontFamily=Helvetica;fontSize=12;" vertex="1" parent="1">
          <mxGeometry x="891.8" y="-270" width="60" height="30" as="geometry" />
        </mxCell>
        <mxCell id="9_oaqR34OvK6Jf1aJRLZ-24" value="" style="verticalLabelPosition=bottom;html=1;verticalAlign=top;strokeWidth=1;align=center;outlineConnect=0;dashed=0;outlineConnect=0;shape=mxgraph.aws3d.application;fillColor=#4286c5;strokeColor=#57A2D8;aspect=fixed;fontFamily=Helvetica;fontSize=12;" vertex="1" parent="1">
          <mxGeometry x="416.59999999999997" y="1290" width="62" height="68.8" as="geometry" />
        </mxCell>
        <mxCell id="9_oaqR34OvK6Jf1aJRLZ-25" value="mongo" style="text;html=1;strokeColor=none;fillColor=none;align=center;verticalAlign=middle;whiteSpace=wrap;rounded=0;fontFamily=Helvetica;fontSize=12;" vertex="1" parent="1">
          <mxGeometry x="403.59999999999997" y="1358.8" width="88" height="30" as="geometry" />
        </mxCell>
        <mxCell id="9_oaqR34OvK6Jf1aJRLZ-26" value="" style="verticalLabelPosition=bottom;html=1;verticalAlign=top;strokeWidth=1;align=center;outlineConnect=0;dashed=0;outlineConnect=0;shape=mxgraph.aws3d.application;fillColor=#4286c5;strokeColor=#57A2D8;aspect=fixed;fontFamily=Helvetica;fontSize=12;" vertex="1" parent="1">
          <mxGeometry x="416.59999999999997" y="1430" width="62" height="68.8" as="geometry" />
        </mxCell>
        <mxCell id="9_oaqR34OvK6Jf1aJRLZ-27" value="redis" style="text;html=1;strokeColor=none;fillColor=none;align=center;verticalAlign=middle;whiteSpace=wrap;rounded=0;fontFamily=Helvetica;fontSize=12;" vertex="1" parent="1">
          <mxGeometry x="403.59999999999997" y="1498.8" width="88" height="30" as="geometry" />
        </mxCell>
        <mxCell id="9_oaqR34OvK6Jf1aJRLZ-28" value="" style="verticalLabelPosition=bottom;html=1;verticalAlign=top;strokeWidth=1;align=center;outlineConnect=0;dashed=0;outlineConnect=0;shape=mxgraph.aws3d.application;fillColor=#4286c5;strokeColor=#57A2D8;aspect=fixed;fontFamily=Helvetica;fontSize=12;" vertex="1" parent="1">
          <mxGeometry x="416.59999999999997" y="1570" width="62" height="68.8" as="geometry" />
        </mxCell>
        <mxCell id="9_oaqR34OvK6Jf1aJRLZ-29" value="rating" style="text;html=1;strokeColor=none;fillColor=none;align=center;verticalAlign=middle;whiteSpace=wrap;rounded=0;fontFamily=Helvetica;fontSize=12;" vertex="1" parent="1">
          <mxGeometry x="403.59999999999997" y="1638.8" width="88" height="30" as="geometry" />
        </mxCell>
        <mxCell id="9_oaqR34OvK6Jf1aJRLZ-31" value="" style="verticalLabelPosition=bottom;html=1;verticalAlign=top;strokeWidth=1;align=center;outlineConnect=0;dashed=0;outlineConnect=0;shape=mxgraph.aws3d.application;fillColor=#4286c5;strokeColor=#57A2D8;aspect=fixed;" vertex="1" parent="1">
          <mxGeometry x="419.80000000000007" y="1710" width="62" height="68.8" as="geometry" />
        </mxCell>
        <mxCell id="9_oaqR34OvK6Jf1aJRLZ-32" value="&lt;pre class=&quot;prefixed command language-bash&quot;&gt;&lt;code&gt;watchtower&lt;/code&gt;&lt;/pre&gt;" style="text;html=1;strokeColor=none;fillColor=none;align=center;verticalAlign=middle;whiteSpace=wrap;rounded=0;" vertex="1" parent="1">
          <mxGeometry x="404.00000000000006" y="1778.8" width="88" height="30" as="geometry" />
        </mxCell>
        <mxCell id="9_oaqR34OvK6Jf1aJRLZ-60" value="makkizentral.de" style="rounded=0;whiteSpace=wrap;html=1;fillColor=#ffe6cc;strokeColor=#d79b00;" vertex="1" parent="1">
          <mxGeometry x="856.8" y="260" width="130" height="60" as="geometry" />
        </mxCell>
        <mxCell id="9_oaqR34OvK6Jf1aJRLZ-61" value="CarPreview" style="rounded=0;whiteSpace=wrap;html=1;fillColor=#ffe6cc;strokeColor=#d79b00;" vertex="1" parent="1">
          <mxGeometry x="856.8" y="170" width="130" height="60" as="geometry" />
        </mxCell>
        <mxCell id="9_oaqR34OvK6Jf1aJRLZ-69" value="central-api" style="whiteSpace=wrap;html=1;aspect=fixed;fillColor=#dae8fc;strokeColor=#6c8ebf;" vertex="1" parent="1">
          <mxGeometry x="830" y="-110" width="80" height="80" as="geometry" />
        </mxCell>
        <mxCell id="9_oaqR34OvK6Jf1aJRLZ-70" value="parser-api" style="whiteSpace=wrap;html=1;aspect=fixed;fillColor=#dae8fc;strokeColor=#6c8ebf;" vertex="1" parent="1">
          <mxGeometry x="830" width="80" height="80" as="geometry" />
        </mxCell>
        <mxCell id="9_oaqR34OvK6Jf1aJRLZ-74" value="logger" style="whiteSpace=wrap;html=1;aspect=fixed;fillColor=#dae8fc;strokeColor=#6c8ebf;" vertex="1" parent="1">
          <mxGeometry x="940" width="80" height="80" as="geometry" />
        </mxCell>
        <mxCell id="9_oaqR34OvK6Jf1aJRLZ-85" value="central-api" style="whiteSpace=wrap;html=1;aspect=fixed;fillColor=#dae8fc;strokeColor=#6c8ebf;" vertex="1" parent="1">
          <mxGeometry x="720" width="80" height="80" as="geometry" />
        </mxCell>
        <mxCell id="9_oaqR34OvK6Jf1aJRLZ-86" value="prices-api" style="whiteSpace=wrap;html=1;aspect=fixed;fillColor=#dae8fc;strokeColor=#6c8ebf;" vertex="1" parent="1">
          <mxGeometry x="600" width="80" height="80" as="geometry" />
        </mxCell>
        <mxCell id="9_oaqR34OvK6Jf1aJRLZ-88" value="ui" style="whiteSpace=wrap;html=1;aspect=fixed;fillColor=#dae8fc;strokeColor=#6c8ebf;" vertex="1" parent="1">
          <mxGeometry x="481.79999999999995" width="80" height="80" as="geometry" />
        </mxCell>
        <mxCell id="9_oaqR34OvK6Jf1aJRLZ-92" value="rating" style="whiteSpace=wrap;html=1;aspect=fixed;fillColor=#dae8fc;strokeColor=#6c8ebf;" vertex="1" parent="1">
          <mxGeometry x="1160" width="80" height="80" as="geometry" />
        </mxCell>
        <mxCell id="9_oaqR34OvK6Jf1aJRLZ-95" value="watchower" style="whiteSpace=wrap;html=1;aspect=fixed;fillColor=#dae8fc;strokeColor=#6c8ebf;" vertex="1" parent="1">
          <mxGeometry x="940" y="-110" width="80" height="80" as="geometry" />
        </mxCell>
        <mxCell id="9_oaqR34OvK6Jf1aJRLZ-100" value="mongodb" style="whiteSpace=wrap;html=1;aspect=fixed;fillColor=#dae8fc;strokeColor=#6c8ebf;" vertex="1" parent="1">
          <mxGeometry x="1050" width="80" height="80" as="geometry" />
        </mxCell>
        <mxCell id="9_oaqR34OvK6Jf1aJRLZ-101" value="redis" style="whiteSpace=wrap;html=1;aspect=fixed;fillColor=#dae8fc;strokeColor=#6c8ebf;" vertex="1" parent="1">
          <mxGeometry x="1270" width="80" height="80" as="geometry" />
        </mxCell>
        <object label="Uses" id="9_oaqR34OvK6Jf1aJRLZ-106">
          <mxCell parent="0" />
        </object>
        <mxCell id="9_oaqR34OvK6Jf1aJRLZ-110" value="clicker" style="whiteSpace=wrap;html=1;aspect=fixed;fillColor=#dae8fc;strokeColor=#6c8ebf;" vertex="1" parent="9_oaqR34OvK6Jf1aJRLZ-106">
          <mxGeometry x="200" width="80" height="80" as="geometry" />
        </mxCell>
      </root>
    </mxGraphModel>
  </diagram>
</mxfile>
